<svg version="1.1" xmlns="http://www.w3.org/2000/svg" xmlns:xlink="http://www.w3.org/1999/xlink" x="0px" y="0px" viewBox="0 0 128 128">
	<!-- shadow: #8A999A; border: #5C6666; inside: #95A5A6-->
<g>
	<path fill="#8A999A" d="M114.513,106.262c0,5.626-21.343,10.187-47.668,10.187c-26.326,0-47.667-4.561-47.667-10.187
		s21.674-9.771,48-9.771C93.503,96.491,114.513,100.636,114.513,106.262z"/>
	<path fill="#95A5A6" d="M105.513,100.491v-47c0-22.644-18.133-41-40.5-41l0,0c-22.367,0-40.5,18.356-40.5,41v47
		c7,0,7.902-8,12.842-8c6.158,0,6.158,8,14.158,8c7,0,7-8,13-8s6,8,14,8c6,0,7.073-8,13-8
		C97.439,92.491,96.622,100.491,105.513,100.491z"/>
	<path opacity="0.2" fill="#5C6666" d="M105.513,101.491c-6.809,0-9.763-3.668-11.717-6.096c-1.401-1.74-1.666-1.904-2.283-1.904
		c-1.042,0-1.813,0.759-3.453,2.623c-1.996,2.27-4.729,5.377-9.547,5.377c-6.115,0-9.143-3.497-11.148-5.812
		c-1.594-1.841-2.047-2.188-2.852-2.188c-0.822,0-1.272,0.363-2.83,2.287c-1.843,2.274-4.628,5.713-10.17,5.713
		c-6.073,0-9.111-3.462-11.121-5.753c-1.572-1.792-2.076-2.247-3.037-2.247c-0.402,0-1.457,1.243-2.154,2.066
		c-2.003,2.363-5.031,5.934-10.688,5.934v-8c1.775,0,2.714-0.899,4.585-3.107c1.751-2.065,4.148-4.893,8.256-4.893
		c4.69,0,7.21,2.873,9.051,4.971c1.795,2.046,2.762,3.029,5.108,3.029c1.593,0,2.271-0.672,3.954-2.749
		c1.694-2.091,4.254-5.251,9.046-5.251c4.612,0,7.09,2.861,8.9,4.951c1.783,2.06,2.745,3.049,5.1,3.049
		c1.092,0,1.877-0.77,3.54-2.66c1.982-2.254,4.697-5.34,9.46-5.34c4.579,0,6.947,2.941,8.514,4.888
		c1.616,2.007,2.507,3.112,5.486,3.112V101.491z"/>
	<path fill="#FFFFFF" d="M103.651,44.164c-1.199,0-2.332-0.724-2.795-1.908c-4.927-12.592-16.911-20.828-32.058-22.03
		c-15.867-1.264-30.746,5.8-37.908,17.985c-0.839,1.428-2.678,1.907-4.106,1.066c-1.429-0.839-1.906-2.678-1.066-4.106
		c8.319-14.151,25.415-22.357,43.556-20.926c17.491,1.389,31.037,11.131,36.821,25.914c0.604,1.543,0.192,3.196-1.351,3.799
		C104.384,44.098,104.014,44.164,103.651,44.164z"/>
	<circle fill="#FFFFFF" cx="83.712" cy="48.141" r="11.8"/>
	<path fill="#5C6666" d="M83.713,61.941c-7.61,0-13.801-6.191-13.801-13.801S76.103,34.34,83.713,34.34
		c7.609,0,13.8,6.191,13.8,13.801S91.322,61.941,83.713,61.941z M83.713,38.34c-5.404,0-9.801,4.396-9.801,9.801
		s4.396,9.801,9.801,9.801c5.404,0,9.8-4.396,9.8-9.801S89.117,38.34,83.713,38.34z"/>
	<path fill="#5C6666" d="M108.513,103.491h-3c-6.331,0-9.104-3.443-10.939-5.723c-1.462-1.816-1.954-2.277-3.061-2.277
		c-1.524,0-2.54,1.07-4.204,2.963c-1.87,2.126-4.431,5.037-8.796,5.037c-5.658,0-8.394-3.159-10.392-5.466
		c-1.626-1.877-2.31-2.534-3.608-2.534c-1.329,0-2.045,0.729-3.607,2.657c-1.827,2.255-4.328,5.343-9.393,5.343
		c-5.62,0-8.365-3.129-10.369-5.413c-1.682-1.916-2.395-2.587-3.789-2.587c-0.78,0-1.523,0.774-2.917,2.42
		c-1.997,2.354-4.731,5.58-9.925,5.58h-3v-50c0-24.262,19.514-44,43.5-44c23.986,0,43.5,19.738,43.5,44V103.491z M64.513,89.491
		c4.155,0,6.367,2.554,8.144,4.606c1.706,1.97,2.939,3.394,5.856,3.394c1.576,0,2.606-1.084,4.291-3c1.959-2.228,4.398-5,8.709-5
		c4.1,0,6.201,2.609,7.735,4.515c1.037,1.287,1.891,2.348,3.265,2.948V53.491c0-20.953-16.822-38-37.5-38
		c-20.678,0-37.5,17.047-37.5,38v42.976c0.754-0.584,1.475-1.406,2.349-2.436c1.714-2.022,3.849-4.54,7.493-4.54
		c4.237,0,6.489,2.567,8.299,4.63c1.716,1.957,2.957,3.37,5.859,3.37c2.106,0,3.071-1.069,4.731-3.119
		C57.913,92.312,60.198,89.491,64.513,89.491z"/>
	<circle fill="#5C6666" cx="86.449" cy="47.991" r="2.5"/>
	<circle fill="#FFFFFF" cx="53.712" cy="48.141" r="11.8"/>
	<path fill="#5C6666" d="M53.713,61.941c-7.61,0-13.801-6.191-13.801-13.801S46.103,34.34,53.713,34.34
		c7.609,0,13.8,6.191,13.8,13.801S61.322,61.941,53.713,61.941z M53.713,38.34c-5.404,0-9.801,4.396-9.801,9.801
		s4.396,9.801,9.801,9.801c5.404,0,9.8-4.396,9.8-9.801S59.117,38.34,53.713,38.34z"/>
	<circle fill="#5C6666" cx="56.449" cy="47.991" r="2.5"/>
</g>
</svg>
