<svg version="1.1" xmlns="http://www.w3.org/2000/svg" xmlns:xlink="http://www.w3.org/1999/xlink" x="0px" y="0px" viewBox="0 0 128 128">
	<!-- shadow: #8A999A; border: #5C6666; inside: #95A5A6-->
<g>
	<path fill="#8A999A" d="M113.051,114.147c0,5.626-21.675,10.187-48,10.187c-26.326,0-47.335-4.561-47.335-10.187 c0-5.626,21.341-10.188,47.667-10.188C91.708,103.96,113.051,108.521,113.051,114.147z"/>
	<circle fill="#95A5A6" cx="65.716" cy="79.834" r="39.5"/>
	<path fill="#5C6666" d="M65.716,122.334c-23.435,0-42.5-19.065-42.5-42.5s19.065-42.5,42.5-42.5c23.435,0,42.5,19.065,42.5,42.5 S89.151,122.334,65.716,122.334z M65.716,43.334c-20.126,0-36.5,16.374-36.5,36.5s16.374,36.5,36.5,36.5 c20.126,0,36.5-16.374,36.5-36.5S85.842,43.334,65.716,43.334z"/>
	<circle fill="#5C6666" cx="56.051" cy="52.334" r="3"/>
	<circle fill="#5C6666" cx="56.051" cy="52.334" r="3"/>
	<circle fill="#5C6666" cx="40.314" cy="65.098" r="3"/>
	<circle fill="#5C6666" cx="36.465" cy="84.992" r="3"/>
	<circle fill="#5C6666" cx="46.302" cy="102.706" r="3"/>
	<circle fill="#5C6666" cx="65.225" cy="109.951" r="3"/>
	<circle fill="#5C6666" cx="84.378" cy="103.339" r="3"/>
	<circle fill="#5C6666" cx="94.799" cy="85.962" r="3"/>
	<circle fill="#5C6666" cx="91.613" cy="65.952" r="3"/>
	<circle fill="#5C6666" cx="76.31" cy="52.671" r="3"/>
	<path fill="#FFFFFF" d="M72.147,78.76c2.631,3.199,2.445,5.11-0.754,7.741c-3.199,2.631-5.11,2.445-7.742-0.754 c-2.631-3.199-14.6-26.413-14.6-26.413S69.516,75.56,72.147,78.76z"/>
	<path fill="#5C6666" d="M67.603,90.324c-2.461,0-4.23-1.768-5.496-3.307c-2.689-3.269-13.598-24.371-14.833-26.767 c-0.432-0.837-0.22-1.863,0.507-2.461c0.728-0.599,1.774-0.608,2.513-0.022c2.112,1.674,20.71,16.453,23.398,19.723 c1.164,1.415,2.472,3.324,2.255,5.548c-0.217,2.224-1.869,3.844-3.284,5.008C70.747,89.622,69.186,90.324,67.603,90.324z M55.243,66.864c4.168,7.872,8.624,15.996,9.953,17.612c1.022,1.244,1.81,1.848,2.407,1.848c0.568,0,1.416-0.46,2.52-1.368 c1.168-0.96,1.788-1.736,1.844-2.307c0.056-0.57-0.403-1.452-1.363-2.619C69.274,78.414,62.163,72.474,55.243,66.864z"/>
</g>
</svg>
