<?xml version="1.0" encoding="UTF-8" standalone="no"?><!DOCTYPE svg PUBLIC "-//W3C//DTD SVG 1.1//EN" "http://www.w3.org/Graphics/SVG/1.1/DTD/svg11.dtd"><svg width="100%" height="100%" viewBox="0 0 250 89" version="1.1" xmlns="http://www.w3.org/2000/svg" xmlns:xlink="http://www.w3.org/1999/xlink" xml:space="preserve" style="fill-rule:evenodd;clip-rule:evenodd;stroke-linejoin:round;stroke-miterlimit:1.41421;"><g id="Camada-1"><clipPath id="_clip1"><path d="M2.173,26.65l0,24.578c0,0 2.996,6.32 12.411,6.279l0,0.039l0,-30.896l-12.411,0Z"/></clipPath><g clip-path="url(#_clip1)"><path d="M14.549,25.998l1.656,31.462l-13.666,0.719l-1.655,-31.461l13.665,-0.72Z" style="fill:url(#_Linear2);fill-rule:nonzero;"/></g><clipPath id="_clip3"><path d="M2.313,13.521c0,3.471 2.814,6.284 6.283,6.284c3.471,0 6.284,-2.813 6.284,-6.284c0,-3.47 -2.813,-6.283 -6.284,-6.283c-3.469,0 -6.283,2.813 -6.283,6.283l0,0Z"/></clipPath><g clip-path="url(#_clip3)"><path d="M14.705,6.734l0.679,12.896l-12.896,0.679l-0.679,-12.896l12.896,-0.679Z" style="fill:url(#_Linear4);fill-rule:nonzero;"/></g><path d="M36.961,19.805c2.824,0 5.195,1.863 5.981,4.426l11.694,-4.013c-2.468,-7.535 -9.553,-12.98 -17.913,-12.98c-10.404,0 -18.839,8.43 -18.849,18.832l-0.001,0l0,12.413l0.001,0c0,0.006 -0.001,0.012 -0.001,0.018c0,10.41 8.431,18.85 18.841,18.85c8.298,0 15.333,-5.364 17.849,-12.812l-11.74,-3.913c-0.858,2.423 -3.138,4.158 -5.862,4.158c-3.47,0 -6.231,-2.813 -6.231,-6.283l0,-12.413c0,-3.47 2.761,-6.283 6.231,-6.283" style="fill:#ffffff;fill-rule:nonzero;"/><path d="M78.297,19.994c-4.552,0 -7.83,2.826 -8.922,3.865l0,-16.408l-12.413,0l0,50.095c9.531,0.041 12.413,-6.318 12.413,-6.318l0,-0.111l0,-13.617c0.309,-1.813 1.205,-4.973 4.476,-4.973c4.586,0 4.39,6.177 4.39,6.177l0,18.842l12.856,0l0,-25.252c0,-7.74 -7.259,-12.3 -12.8,-12.3" style="fill:#ffffff;fill-rule:nonzero;"/><path d="M106.053,37.426c0.57,-2.844 3.081,-4.987 6.093,-4.987c1.574,0 3.008,0.591 4.103,1.556l-10.196,3.431Zm24.705,-1.755c-1.431,-8.993 -9.218,-15.866 -18.612,-15.866c-10.411,0 -18.85,8.439 -18.85,18.849c0,10.411 8.439,18.85 18.85,18.85c6.746,0 12.661,-3.546 15.991,-8.874l-11.486,-5.703c-1.132,1.194 -2.73,1.943 -4.505,1.943c-1.575,0 -3.009,-0.591 -4.104,-1.556l11.784,-3.965l10.932,-3.678Z" style="fill:#ffffff;fill-rule:nonzero;"/><path d="M151.584,45.105c-3.563,0 -6.451,-2.888 -6.451,-6.451c0,-3.562 2.888,-6.45 6.451,-6.45c3.562,0 6.451,2.888 6.451,6.45c0,3.563 -2.889,6.451 -6.451,6.451m0,-25.3c-10.411,0 -18.85,8.439 -18.85,18.849c0,10.411 8.439,18.85 18.85,18.85c2.302,0 4.507,-0.414 6.546,-1.17l0,7.418c0,3.563 -2.888,6.451 -6.45,6.451c-3.563,0 -6.451,-2.888 -6.451,-6.451l-11.48,5.817c2.452,7.563 9.551,13.033 17.931,13.033c10.41,0 18.85,-8.44 18.85,-18.85l0.013,0l0,-43.889c-4.295,-0.018 -7.236,1.263 -9.176,2.677c-2.851,-1.735 -6.2,-2.735 -9.783,-2.735" style="fill:#ffffff;fill-rule:nonzero;"/><clipPath id="_clip5"><path d="M172.719,38.654c0,10.411 8.439,18.85 18.85,18.85c10.411,0 18.85,-8.439 18.85,-18.85c0,-10.41 -8.439,-18.849 -18.85,-18.849c-10.411,0 -18.85,8.439 -18.85,18.849Zm17.498,-13.942c0,-1.057 1.057,-1.057 1.057,-1.057c1.056,0 1.056,1.057 1.056,1.057l0,12.152l4.984,-4.917c0,0 0.782,-0.694 1.492,-0.087c0.709,0.606 0.256,1.442 0.256,1.442l-8.845,8.846l0,-17.436l0,0Z"/></clipPath><g clip-path="url(#_clip5)"><path d="M212.145,20.417l-2.338,38.813l-38.813,-2.338l2.338,-38.813l38.813,2.338Z" style="fill:url(#_Linear6);fill-rule:nonzero;"/></g><path d="M234.443,19.863l0,20.046c-0.309,1.814 -1.205,4.973 -4.476,4.973c-4.587,0 -4.391,-6.178 -4.391,-6.178l0,-12.616c-3.879,-5.246 -12.856,-6.225 -12.856,-6.225l0,25.252c0,7.74 7.26,12.3 12.801,12.3c4.552,0 8.035,-2.826 8.922,-3.865c0,0 2.66,4.037 12.413,3.995l0,-37.682l-12.413,0l0,0Z" style="fill:#ffffff;fill-rule:nonzero;"/></g><defs><linearGradient id="_Linear2" x1="0" y1="0" x2="1" y2="0" gradientUnits="userSpaceOnUse" gradientTransform="matrix(-6.41977,106.568,-106.568,-6.41977,196.096,-36.4939)"><stop offset="0%" style="stop-color:#f7931d;stop-opacity:1"/><stop offset="100%" style="stop-color:#f15a29;stop-opacity:1"/></linearGradient><linearGradient id="_Linear4" x1="0" y1="0" x2="1" y2="0" gradientUnits="userSpaceOnUse" gradientTransform="matrix(-6.41977,106.568,-106.568,-6.41977,196.096,-36.4939)"><stop offset="0%" style="stop-color:#f7931d;stop-opacity:1"/><stop offset="100%" style="stop-color:#f15a29;stop-opacity:1"/></linearGradient><linearGradient id="_Linear6" x1="0" y1="0" x2="1" y2="0" gradientUnits="userSpaceOnUse" gradientTransform="matrix(-6.41977,106.568,-106.568,-6.41977,196.096,-36.4939)"><stop offset="0%" style="stop-color:#f7931d;stop-opacity:1"/><stop offset="100%" style="stop-color:#f15a29;stop-opacity:1"/></linearGradient></defs></svg>