<svg width="100%" height="100%" viewBox="0 0 792 281" version="1.1" xmlns="http://www.w3.org/2000/svg" xmlns:xlink="http://www.w3.org/1999/xlink" xml:space="preserve" style="fill-rule:evenodd;clip-rule:evenodd;stroke-linejoin:round;stroke-miterlimit:1.41421;">
    <g id="Camada-1">
        <clipPath id="_clip1">
            <path d="M102.089,116.381l0,57.434c0,0 7,14.768 29,14.672l0,0.09l0,-72.196l-29,0Z"/>
        </clipPath>
        <g clip-path="url(#_clip1)">
            <path d="M131.009,114.859l3.869,73.519l-31.934,1.68l-3.869,-73.518l31.934,-1.681Z" style="fill:url(#_Linear1);fill-rule:nonzero;"/>
        </g>
        <clipPath id="_clip2">
            <path d="M102.416,85.703c0,8.109 6.574,14.683 14.682,14.683c8.109,0 14.683,-6.574 14.683,-14.683c0,-8.109 -6.574,-14.682 -14.683,-14.682c-8.108,0 -14.682,6.573 -14.682,14.682Z"/>
        </clipPath>
        <g clip-path="url(#_clip2)">
            <path d="M131.373,69.843l1.586,30.135l-30.135,1.586l-1.586,-30.135l30.135,-1.586Z" style="fill:url(#_Linear1);fill-rule:nonzero;"/>
        </g>
            <path d="M183.38,100.386c6.598,0 12.139,4.353 13.975,10.343l27.326,-9.377c-5.767,-17.608 -22.322,-30.331 -41.858,-30.331c-24.312,0 -44.023,19.698 -44.046,44.005l-0.001,0l0,29.006l0.001,0c0,0.014 -0.001,0.028 -0.001,0.042c0,24.327 19.7,44.048 44.027,44.048c19.39,0 35.829,-12.535 41.707,-29.939l-27.433,-9.144c-2.005,5.662 -7.333,9.718 -13.697,9.718c-8.109,0 -14.562,-6.574 -14.562,-14.683l0,-29.006c0,-8.108 6.453,-14.682 14.562,-14.682" style="fill:#6c6e70;fill-rule:nonzero;"/>
            <path d="M279.971,100.827c-10.637,0 -18.295,6.605 -20.848,9.033l0,-38.343l-29.006,0l0,117.06c22.272,0.096 29.006,-14.762 29.006,-14.762l0,-0.259l0,-31.82c0.722,-4.238 2.816,-11.622 10.459,-11.622c10.718,0 10.26,14.436 10.26,14.436l0,44.027l30.041,0l0,-59.006c0,-18.087 -16.963,-28.744 -29.912,-28.744" style="fill:#6c6e70;fill-rule:nonzero;"/>
            <path d="M344.831,141.562c1.333,-6.645 7.199,-11.652 14.237,-11.652c3.68,0 7.029,1.379 9.589,3.635l-23.826,8.017ZM402.56,137.461c-3.342,-21.013 -21.539,-37.075 -43.492,-37.075c-24.327,0 -44.048,19.721 -44.048,44.047c0,24.327 19.721,44.048 44.048,44.048c15.764,0 29.586,-8.287 37.369,-20.737l-26.841,-13.326c-2.646,2.79 -6.379,4.539 -10.528,4.539c-3.68,0 -7.03,-1.38 -9.589,-3.635l27.536,-9.266l25.545,-8.595Z" style="fill:#6c6e70;fill-rule:nonzero;"/>
            <path d="M451.226,159.507c-8.325,0 -15.074,-6.749 -15.074,-15.074c0,-8.325 6.749,-15.074 15.074,-15.074c8.325,0 15.074,6.749 15.074,15.074c0,8.325 -6.749,15.074 -15.074,15.074M451.226,100.386c-24.327,0 -44.047,19.72 -44.047,44.047c0,24.327 19.72,44.047 44.047,44.047c5.38,0 10.533,-0.967 15.298,-2.733l0,17.333c0,8.325 -6.749,15.074 -15.074,15.074c-8.325,0 -15.074,-6.749 -15.074,-15.074l-26.825,13.594c5.73,17.672 22.318,30.453 41.899,30.453c24.327,0 44.048,-19.72 44.048,-44.047l0.032,0l0,-102.557c-10.037,-0.043 -16.91,2.951 -21.442,6.254c-6.664,-4.055 -14.49,-6.391 -22.862,-6.391" style="fill:#6c6e70;fill-rule:nonzero;"/>
        <clipPath id="_clip3">
            <path d="M500.615,144.433c0,24.327 19.72,44.047 44.047,44.047c24.327,0 44.048,-19.72 44.048,-44.047c0,-24.326 -19.721,-44.047 -44.048,-44.047c-24.327,0 -44.047,19.721 -44.047,44.047ZM541.502,111.853c0,-2.47 2.47,-2.47 2.47,-2.47c2.469,0 2.469,2.47 2.469,2.47l0,28.397l11.645,-11.491c0,0 1.829,-1.621 3.486,-0.203c1.657,1.417 0.6,3.369 0.6,3.369l-20.67,20.671l0,-40.743Z"/>
        </clipPath>
        <g clip-path="url(#_clip3)">
            <path d="M592.743,101.817l-5.464,90.696l-90.697,-5.464l5.464,-90.696l90.697,5.464Z" style="fill:url(#_Linear1);fill-rule:nonzero;"/>
        </g>
            <path d="M644.848,100.523l0,46.842c-0.722,4.238 -2.816,11.621 -10.459,11.621c-10.718,0 -10.26,-14.436 -10.26,-14.436l0,-29.482c-9.064,-12.259 -30.041,-14.545 -30.041,-14.545l0,59.006c0,18.087 16.963,28.744 29.912,28.744c10.637,0 18.776,-6.605 20.848,-9.033c0,0 6.216,9.433 29.006,9.336l0,-88.053l-29.006,0Z" style="fill:#6c6e70;fill-rule:nonzero;"/>
        </g>
    <defs>
        <linearGradient id="_Linear1" x1="0" y1="0" x2="1" y2="0" gradientUnits="userSpaceOnUse" gradientTransform="matrix(-15.0015,249.025,-249.025,-15.0015,555.241,-31.1709)">
            <stop offset="0%" style="stop-color:#f7931d;stop-opacity:1"/>
            <stop offset="100%" style="stop-color:#f15a29;stop-opacity:1"/>
        </linearGradient>
    </defs>
</svg>
